<svg width="22" height="22" viewBox="0 0 22 22" fill="none" xmlns="http://www.w3.org/2000/svg">
<path fill-rule="evenodd" clip-rule="evenodd" d="M6.67604 19.7745C6.67982 20.2672 6.38591 20.7136 5.93176 20.9047C5.47761 21.0959 4.95299 20.9942 4.60322 20.6471C4.25345 20.3 4.14768 19.7762 4.33537 19.3206C4.52305 18.865 4.9671 18.5676 5.45985 18.5676C6.12881 18.5654 6.67311 19.1055 6.67604 19.7745V19.7745Z" stroke="black" stroke-width="1.5" stroke-linecap="round" stroke-linejoin="round"/>
<path fill-rule="evenodd" clip-rule="evenodd" d="M13.9734 19.7745C13.9772 20.2672 13.6833 20.7136 13.2291 20.9047C12.775 21.0959 12.2503 20.9942 11.9006 20.6471C11.5508 20.3 11.445 19.7762 11.6327 19.3206C11.8204 18.865 12.2645 18.5676 12.7572 18.5676C13.4262 18.5654 13.9705 19.1055 13.9734 19.7745V19.7745Z" stroke="black" stroke-width="1.5" stroke-linecap="round" stroke-linejoin="round"/>
<path d="M3.66417 4.82186V4.07186C3.24996 4.07186 2.91417 4.40765 2.91417 4.82186H3.66417ZM20.5577 5.9941L21.3016 5.89849C21.3 5.88661 21.2982 5.87477 21.2961 5.86298L20.5577 5.9941ZM20.4525 6.84663L19.7542 6.57301C19.7499 6.58395 19.7458 6.59499 19.7421 6.60612L20.4525 6.84663ZM19.5906 9.39225L20.2862 9.67256C20.2915 9.65944 20.2964 9.64616 20.301 9.63276L19.5906 9.39225ZM18.0281 13.27L18.6978 13.6074C18.7073 13.5887 18.7159 13.5697 18.7237 13.5503L18.0281 13.27ZM6.9078 16.086V15.336L6.90471 15.336L6.9078 16.086ZM4.61925 15.1488L4.091 15.6812H4.091L4.61925 15.1488ZM3.66417 12.8677H2.91417L2.91418 12.8704L3.66417 12.8677ZM2.91417 4.82177C2.91417 5.23598 3.24996 5.57177 3.66417 5.57177C4.07839 5.57177 4.41417 5.23598 4.41417 4.82177H2.91417ZM3.66417 1.79926H4.41421L4.41414 1.79185L3.66417 1.79926ZM2.85293 1.00001V1.75002L2.85668 1.75L2.85293 1.00001ZM1 0.25001C0.585786 0.25001 0.25 0.585797 0.25 1.00001C0.25 1.41422 0.585786 1.75001 1 1.75001V0.25001ZM3.66417 5.57186H17.3487V4.07186H3.66417V5.57186ZM17.3487 5.57186C18.2339 5.57186 18.8485 5.54433 19.3105 5.64967C19.5178 5.69695 19.6218 5.75836 19.6775 5.81004C19.7235 5.85266 19.785 5.93229 19.8192 6.12521L21.2961 5.86298C21.2145 5.40318 21.0206 5.00992 20.6977 4.71035C20.3845 4.41986 20.0062 4.26981 19.6439 4.1872C18.9667 4.03279 18.0926 4.07186 17.3487 4.07186V5.57186ZM19.8138 6.0897C19.8348 6.25326 19.8143 6.41947 19.7542 6.57301L21.1508 7.12026C21.3028 6.73213 21.3547 6.31195 21.3016 5.89849L19.8138 6.0897ZM19.7421 6.60612L18.8802 9.15174L20.301 9.63276L21.1628 7.08714L19.7421 6.60612ZM18.895 9.11193L17.3324 12.9896L18.7237 13.5503L20.2862 9.67256L18.895 9.11193ZM17.3583 12.9325C17.0514 13.5415 16.8198 13.9964 16.6131 14.3489C16.406 14.7022 16.2505 14.9052 16.1128 15.0325C15.8971 15.2321 15.6416 15.336 14.7844 15.336V16.836C15.719 16.836 16.4772 16.7388 17.1313 16.1337C17.4286 15.8588 17.672 15.5086 17.9071 15.1076C18.1427 14.7058 18.3966 14.2053 18.6978 13.6074L17.3583 12.9325ZM14.7844 15.336H6.9078V16.836H14.7844V15.336ZM6.90471 15.336C6.24671 15.3387 5.6146 15.0799 5.1475 14.6164L4.091 15.6812C4.84058 16.4249 5.85497 16.8403 6.9109 16.836L6.90471 15.336ZM5.1475 14.6164C4.6804 14.1529 4.4166 13.5229 4.41417 12.8649L2.91418 12.8704C2.91809 13.9264 3.34142 14.9375 4.091 15.6812L5.1475 14.6164ZM4.41417 12.8677V4.82186H2.91417V12.8677H4.41417ZM4.41417 4.82177V1.79926H2.91417V4.82177H4.41417ZM4.41414 1.79185C4.40566 0.934817 3.70624 0.245735 2.84918 0.25002L2.85668 1.75C2.88819 1.74984 2.9139 1.77517 2.91421 1.80668L4.41414 1.79185ZM2.85293 0.25001H1V1.75001H2.85293V0.25001Z" fill="black"/>
</svg>
