<svg width="19" height="22" viewBox="0 0 19 22" fill="none" xmlns="http://www.w3.org/2000/svg">
<path fill-rule="evenodd" clip-rule="evenodd" d="M13.1099 13.8572H6.03276C3.94982 13.9606 2.10443 15.2329 1.26705 17.1429C0.25705 19.1257 2.27276 21 4.61705 21H14.5256C16.8713 21 18.8871 19.1257 17.8756 17.1429C17.0382 15.2329 15.1929 13.9606 13.1099 13.8572Z" stroke="black" stroke-width="1.5" stroke-linecap="round" stroke-linejoin="round"/>
<path fill-rule="evenodd" clip-rule="evenodd" d="M13.8571 5.28571C13.8571 7.65265 11.9383 9.57143 9.57136 9.57143C7.20442 9.57143 5.28564 7.65265 5.28564 5.28571C5.28564 2.91878 7.20442 1 9.57136 1C10.708 1 11.7981 1.45153 12.6018 2.25526C13.4055 3.05898 13.8571 4.14907 13.8571 5.28571Z" stroke="black" stroke-width="1.5" stroke-linecap="round" stroke-linejoin="round"/>
</svg>
