<svg width="30" height="30" viewBox="0 0 30 30" fill="none" xmlns="http://www.w3.org/2000/svg">
<g filter="url(#filter0_b_45_5256)">
<circle cx="15" cy="15" r="15" fill="white" fill-opacity="0.4"/>
<circle cx="15" cy="15" r="14.5" stroke="white"/>
</g>
<path d="M11.1428 14.6786C10.7286 14.6786 10.3928 15.0143 10.3928 15.4286C10.3928 15.8428 10.7286 16.1786 11.1428 16.1786V14.6786ZM15.4285 16.1786C15.8428 16.1786 16.1785 15.8428 16.1785 15.4286C16.1785 15.0143 15.8428 14.6786 15.4285 14.6786V16.1786ZM15.4285 14.6786C15.0143 14.6786 14.6785 15.0143 14.6785 15.4286C14.6785 15.8428 15.0143 16.1786 15.4285 16.1786V14.6786ZM19.7143 16.1786C20.1285 16.1786 20.4643 15.8428 20.4643 15.4286C20.4643 15.0143 20.1285 14.6786 19.7143 14.6786V16.1786ZM16.1785 15.4286C16.1785 15.0144 15.8428 14.6786 15.4285 14.6786C15.0143 14.6786 14.6785 15.0144 14.6785 15.4286H16.1785ZM14.6785 19.7143C14.6785 20.1285 15.0143 20.4643 15.4285 20.4643C15.8428 20.4643 16.1785 20.1285 16.1785 19.7143H14.6785ZM14.6785 15.4285C14.6785 15.8428 15.0143 16.1785 15.4285 16.1785C15.8428 16.1785 16.1785 15.8428 16.1785 15.4285H14.6785ZM16.1785 11.1428C16.1785 10.7286 15.8428 10.3928 15.4285 10.3928C15.0143 10.3928 14.6785 10.7286 14.6785 11.1428H16.1785ZM11.1428 16.1786H15.4285V14.6786H11.1428V16.1786ZM15.4285 16.1786H19.7143V14.6786H15.4285V16.1786ZM14.6785 15.4286V19.7143H16.1785V15.4286H14.6785ZM16.1785 15.4285V11.1428H14.6785V15.4285H16.1785Z" fill="white"/>
<defs>
<filter id="filter0_b_45_5256" x="-4" y="-4" width="38" height="38" filterUnits="userSpaceOnUse" color-interpolation-filters="sRGB">
<feFlood flood-opacity="0" result="BackgroundImageFix"/>
<feGaussianBlur in="BackgroundImageFix" stdDeviation="2"/>
<feComposite in2="SourceAlpha" operator="in" result="effect1_backgroundBlur_45_5256"/>
<feBlend mode="normal" in="SourceGraphic" in2="effect1_backgroundBlur_45_5256" result="shape"/>
</filter>
</defs>
</svg>
