<svg width="30" height="30" viewBox="0 0 30 30" fill="none" xmlns="http://www.w3.org/2000/svg">
<g filter="url(#filter0_b_45_5313)">
<circle cx="15" cy="15" r="15" fill="white" fill-opacity="0.5"/>
<circle cx="15" cy="15" r="14.5" stroke="#333333"/>
</g>
<path fill-rule="evenodd" clip-rule="evenodd" d="M16.5849 12.0129L15 9L13.4151 12.0129C13.3032 12.233 13.1411 12.4239 12.942 12.57C12.7419 12.7169 12.5104 12.8152 12.2657 12.8571L9 13.4974L11.28 16.224C11.5918 16.5657 11.7389 17.0265 11.6829 17.4857L11.2491 21L14.256 19.5429C14.488 19.4305 14.7423 19.3719 15 19.3714C15.2418 19.3722 15.4799 19.431 15.6943 19.5429L18.7714 20.91L18.3377 17.4377C18.2829 16.9795 18.4303 16.5202 18.7414 16.1794L21 13.4974L17.7343 12.8571C17.4893 12.8153 17.2575 12.717 17.0571 12.57C16.8583 12.4238 16.6966 12.2329 16.5849 12.0129Z" stroke="#333333" stroke-width="1.5" stroke-linecap="round" stroke-linejoin="round"/>
<defs>
<filter id="filter0_b_45_5313" x="-4" y="-4" width="38" height="38" filterUnits="userSpaceOnUse" color-interpolation-filters="sRGB">
<feFlood flood-opacity="0" result="BackgroundImageFix"/>
<feGaussianBlur in="BackgroundImageFix" stdDeviation="2"/>
<feComposite in2="SourceAlpha" operator="in" result="effect1_backgroundBlur_45_5313"/>
<feBlend mode="normal" in="SourceGraphic" in2="effect1_backgroundBlur_45_5313" result="shape"/>
</filter>
</defs>
</svg>
