<svg width="19" height="14" viewBox="0 0 19 14" fill="none" xmlns="http://www.w3.org/2000/svg">
<path d="M11.1078 12.4608C10.8078 12.7465 10.7962 13.2212 11.0819 13.5212C11.3676 13.8211 11.8423 13.8327 12.1422 13.547L11.1078 12.4608ZM18.5172 7.47561C18.8172 7.18995 18.8288 6.71522 18.5431 6.41527C18.2574 6.11532 17.7827 6.10374 17.4828 6.38941L18.5172 7.47561ZM17.4828 7.47565C17.7827 7.76131 18.2574 7.74973 18.5431 7.44978C18.8288 7.14984 18.8172 6.6751 18.5172 6.38944L17.4828 7.47565ZM12.1422 0.318011C11.8423 0.0323468 11.3676 0.0439256 11.0819 0.343873C10.7962 0.643821 10.8078 1.11855 11.1078 1.40422L12.1422 0.318011ZM18 7.68254C18.4142 7.68254 18.75 7.34676 18.75 6.93254C18.75 6.51833 18.4142 6.18254 18 6.18254V7.68254ZM1 6.18254C0.585787 6.18254 0.25 6.51833 0.25 6.93254C0.25 7.34676 0.585787 7.68254 1 7.68254V6.18254ZM12.1422 13.547L18.5172 7.47561L17.4828 6.38941L11.1078 12.4608L12.1422 13.547ZM18.5172 6.38944L12.1422 0.318011L11.1078 1.40422L17.4828 7.47565L18.5172 6.38944ZM18 6.18254L1 6.18254V7.68254L18 7.68254V6.18254Z" fill="#333333"/>
</svg>
