<svg width="22" height="22" viewBox="0 0 22 22" fill="none" xmlns="http://www.w3.org/2000/svg">
<path d="M1 10.1233C0.585786 10.1233 0.25 10.4591 0.25 10.8733C0.25 11.2875 0.585786 11.6233 1 11.6233V10.1233ZM11 11.6233C11.4142 11.6233 11.75 11.2875 11.75 10.8733C11.75 10.4591 11.4142 10.1233 11 10.1233V11.6233ZM11 10.1233C10.5858 10.1233 10.25 10.4591 10.25 10.8733C10.25 11.2875 10.5858 11.6233 11 11.6233V10.1233ZM21 11.6233C21.4142 11.6233 21.75 11.2875 21.75 10.8733C21.75 10.4591 21.4142 10.1233 21 10.1233V11.6233ZM11.7497 10.8733C11.7497 10.4591 11.4139 10.1233 10.9997 10.1233C10.5855 10.1233 10.2497 10.4591 10.2497 10.8733H11.7497ZM10.2497 20.7466C10.2497 21.1608 10.5855 21.4966 10.9997 21.4966C11.4139 21.4966 11.7497 21.1608 11.7497 20.7466H10.2497ZM10.2497 10.8733C10.2497 11.2875 10.5855 11.6233 10.9997 11.6233C11.4139 11.6233 11.7497 11.2875 11.7497 10.8733H10.2497ZM11.7497 1C11.7497 0.585786 11.4139 0.25 10.9997 0.25C10.5855 0.25 10.2497 0.585786 10.2497 1H11.7497ZM1 11.6233H11V10.1233H1V11.6233ZM11 11.6233H21V10.1233H11V11.6233ZM10.2497 10.8733V20.7466H11.7497V10.8733H10.2497ZM11.7497 10.8733V1H10.2497V10.8733H11.7497Z" fill="black"/>
</svg>
