<svg width="20" height="20" viewBox="0 0 20 20" fill="none" xmlns="http://www.w3.org/2000/svg">
<path d="M1.73438 9.24159C1.32016 9.24159 0.984375 9.57738 0.984375 9.99159C0.984375 10.4058 1.32016 10.7416 1.73438 10.7416V9.24159ZM10.0939 10.7416C10.5081 10.7416 10.8439 10.4058 10.8439 9.99159C10.8439 9.57738 10.5081 9.24159 10.0939 9.24159V10.7416ZM10.0939 9.24159C9.67973 9.24159 9.34394 9.57738 9.34394 9.99159C9.34394 10.4058 9.67973 10.7416 10.0939 10.7416V9.24159ZM18.4535 10.7416C18.8677 10.7416 19.2035 10.4058 19.2035 9.99159C19.2035 9.57738 18.8677 9.24159 18.4535 9.24159V10.7416ZM10.8439 9.99161C10.8439 9.5774 10.5081 9.24161 10.0939 9.24161C9.67972 9.24161 9.34394 9.5774 9.34394 9.99161H10.8439ZM9.34394 18.5525C9.34394 18.9667 9.67972 19.3025 10.0939 19.3025C10.5081 19.3025 10.8439 18.9667 10.8439 18.5525H9.34394ZM9.34394 9.99154C9.34394 10.4058 9.67973 10.7415 10.0939 10.7415C10.5082 10.7415 10.8439 10.4058 10.8439 9.99154H9.34394ZM10.8439 1.43066C10.8439 1.01645 10.5082 0.680664 10.0939 0.680664C9.67973 0.680664 9.34394 1.01645 9.34394 1.43066H10.8439ZM1.73438 10.7416H10.0939V9.24159H1.73438V10.7416ZM10.0939 10.7416H18.4535V9.24159H10.0939V10.7416ZM9.34394 9.99161V18.5525H10.8439V9.99161H9.34394ZM10.8439 9.99154V1.43066H9.34394V9.99154H10.8439Z" fill="white"/>
</svg>
